<svg width="291" height="252" viewBox="0 0 291 252" fill="none" xmlns="http://www.w3.org/2000/svg">
<rect x="4" y="119" width="66" height="41" fill="#74578B"/>
<path d="M220 119H287V160H220V119Z" fill="#74578B"/>
<path d="M2.84311 74.2719H288.157M27.5446 29.5C9.5 29.5 2.84311 42.5 2.84311 58.0956V227.412C2.84311 243.555 10.0364 249.641 27.5446 249.641H263.455C280.963 249.641 288.157 243.555 288.157 227.412V58.0956C288.157 41.9534 280.963 29.5 263.455 29.5H145.5H90.0223H27.5446Z" stroke="#74578B" stroke-width="4" stroke-linecap="round" stroke-linejoin="round"/>
<line x1="3" y1="117.5" x2="290" y2="117.5" stroke="#74578B" stroke-width="3"/>
<line x1="218.5" y1="75" x2="218.5" y2="250" stroke="#74578B" stroke-width="3"/>
<line x1="3" y1="205.5" x2="290" y2="205.5" stroke="#74578B" stroke-width="3"/>
<line x1="147.5" y1="76" x2="147.5" y2="251" stroke="#74578B" stroke-width="3"/>
<line x1="71.5" y1="76" x2="71.5" y2="251" stroke="#74578B" stroke-width="3"/>
<line x1="3" y1="161.5" x2="290" y2="161.5" stroke="#74578B" stroke-width="3"/>
<path d="M23.528 109V83.8H27.344L36.524 98.74L34.688 98.704L43.976 83.8H47.576V109H43.688V98.668C43.688 96.508 43.736 94.564 43.832 92.836C43.952 91.108 44.144 89.392 44.408 87.688L44.912 89.02L36.668 101.764H34.292L26.3 89.164L26.696 87.688C26.96 89.296 27.14 90.952 27.236 92.656C27.356 94.336 27.416 96.34 27.416 98.668V109H23.528Z" fill="#74578B"/>
<path d="M95.528 152V126.8H99.344L108.524 141.74L106.688 141.704L115.976 126.8H119.576V152H115.688V141.668C115.688 139.508 115.736 137.564 115.832 135.836C115.952 134.108 116.144 132.392 116.408 130.688L116.912 132.02L108.668 144.764H106.292L98.3 132.164L98.696 130.688C98.96 132.296 99.14 133.952 99.236 135.656C99.356 137.336 99.416 139.34 99.416 141.668V152H95.528Z" fill="#74578B"/>
<path d="M181.296 152V139.436L181.548 141.2L171.36 126.8H176.04L183.816 137.96L182.916 137.852L189.936 126.8H194.4L184.644 141.596L185.184 139.148V152H181.296Z" fill="#74578B"/>
<path d="M97.9 108L107.656 82.8H111.616L121.3 108H117.16L111.4 92.808C111.328 92.64 111.184 92.232 110.968 91.584C110.776 90.936 110.548 90.216 110.284 89.424C110.02 88.632 109.78 87.912 109.564 87.264C109.348 86.592 109.204 86.16 109.132 85.968L109.96 85.932C109.816 86.34 109.636 86.856 109.42 87.48C109.228 88.104 109.012 88.764 108.772 89.46C108.556 90.156 108.34 90.816 108.124 91.44C107.908 92.04 107.728 92.544 107.584 92.952L101.86 108H97.9ZM102.22 101.736L103.66 97.992H115.108L116.764 101.736H102.22Z" fill="#74578B"/>
<path d="M176.768 100.368L176.552 96.012L189.764 82.8H194.876L176.768 100.368ZM173.528 108V82.8H177.416V108H173.528ZM190.232 108L180.584 95.112L183.464 92.628L195.092 108H190.232Z" fill="#74578B"/>
<path d="M245.528 109V83.8H261.404V87.544H249.416V105.256H261.404V109H245.528ZM247.292 97.948V94.204H259.424V97.948H247.292Z" fill="#74578B"/>
<path d="M23.528 197V171.8H27.344L36.524 186.74L34.688 186.704L43.976 171.8H47.576V197H43.688V186.668C43.688 184.508 43.736 182.564 43.832 180.836C43.952 179.108 44.144 177.392 44.408 175.688L44.912 177.02L36.668 189.764H34.292L26.3 177.164L26.696 175.688C26.96 177.296 27.14 178.952 27.236 180.656C27.356 182.336 27.416 184.34 27.416 186.668V197H23.528Z" fill="#74578B"/>
<path d="M101.528 196V170.8H117.404V174.544H105.416V192.256H117.404V196H101.528ZM103.292 184.948V181.204H115.424V184.948H103.292Z" fill="#74578B"/>
<path d="M170.9 196L180.656 170.8H184.616L194.3 196H190.16L184.4 180.808C184.328 180.64 184.184 180.232 183.968 179.584C183.776 178.936 183.548 178.216 183.284 177.424C183.02 176.632 182.78 175.912 182.564 175.264C182.348 174.592 182.204 174.16 182.132 173.968L182.96 173.932C182.816 174.34 182.636 174.856 182.42 175.48C182.228 176.104 182.012 176.764 181.772 177.46C181.556 178.156 181.34 178.816 181.124 179.44C180.908 180.04 180.728 180.544 180.584 180.952L174.86 196H170.9ZM175.22 189.736L176.66 185.992H188.108L189.764 189.736H175.22Z" fill="#74578B"/>
<path d="M246.528 197V171.8H250.416V193.256H262.224V197H246.528Z" fill="#74578B"/>
<path d="M29.528 241V215.8H39.788C41.156 215.8 42.392 216.148 43.496 216.844C44.624 217.516 45.524 218.44 46.196 219.616C46.868 220.792 47.204 222.1 47.204 223.54C47.204 224.98 46.868 226.288 46.196 227.464C45.524 228.64 44.624 229.588 43.496 230.308C42.392 231.004 41.156 231.352 39.788 231.352H33.416V241H29.528ZM33.416 227.608H39.716C40.364 227.608 40.952 227.428 41.48 227.068C42.008 226.684 42.428 226.192 42.74 225.592C43.076 224.968 43.244 224.284 43.244 223.54C43.244 222.796 43.076 222.124 42.74 221.524C42.428 220.924 42.008 220.444 41.48 220.084C40.952 219.724 40.364 219.544 39.716 219.544H33.416V227.608Z" fill="#74578B"/>
<path d="M102.528 240V214.8H106.416V236.256H118.224V240H102.528Z" fill="#74578B"/>
<path d="M170.9 240L180.656 214.8H184.616L194.3 240H190.16L184.4 224.808C184.328 224.64 184.184 224.232 183.968 223.584C183.776 222.936 183.548 222.216 183.284 221.424C183.02 220.632 182.78 219.912 182.564 219.264C182.348 218.592 182.204 218.16 182.132 217.968L182.96 217.932C182.816 218.34 182.636 218.856 182.42 219.48C182.228 220.104 182.012 220.764 181.772 221.46C181.556 222.156 181.34 222.816 181.124 223.44C180.908 224.04 180.728 224.544 180.584 224.952L174.86 240H170.9ZM175.22 233.736L176.66 229.992H188.108L189.764 233.736H175.22Z" fill="#74578B"/>
<path d="M241.528 241V215.8H245.02L260.428 236.428L259.852 236.752C259.756 236.152 259.672 235.504 259.6 234.808C259.528 234.088 259.456 233.332 259.384 232.54C259.336 231.724 259.288 230.872 259.24 229.984C259.216 229.072 259.192 228.124 259.168 227.14C259.144 226.156 259.132 225.136 259.132 224.08V215.8H263.02V241H259.456L244.3 221.128L244.696 220.624C244.816 222.088 244.912 223.336 244.984 224.368C245.08 225.376 245.152 226.24 245.2 226.96C245.272 227.656 245.32 228.232 245.344 228.688C245.368 229.12 245.38 229.48 245.38 229.768C245.404 230.056 245.416 230.308 245.416 230.524V241H241.528Z" fill="#74578B"/>
<path d="M4 53C4 40.8497 13.8497 31 26 31H265C277.15 31 287 40.8497 287 53V73H4V53Z" fill="#74578B"/>
<path d="M77 5C77 2.79086 75.2091 1 73 1C70.7909 1 69 2.79086 69 5L77 5ZM77 31L77 5L69 5L69 31L77 31Z" fill="#74578B"/>
<path d="M221 4C221 1.79086 219.209 1.20828e-06 217 1.20828e-06C214.791 1.20828e-06 213 1.79086 213 4L221 4ZM221 30L221 4L213 4L213 30L221 30Z" fill="#74578B"/>
</svg>
